<?xml version="1.0" encoding="iso-8859-1"?>
<!-- Generator: Adobe Illustrator 24.0.2, SVG Export Plug-In . SVG Version: 6.00 Build 0)  -->
<svg version="1.1" id="Capa_1" xmlns="http://www.w3.org/2000/svg" xmlns:xlink="http://www.w3.org/1999/xlink" x="0px" y="0px"
	 width="558.635px" height="451.097px" viewBox="0 0 558.635 451.097" enable-background="new 0 0 558.635 451.097"
	 xml:space="preserve">
<g>
	<g>
		<path fill="#304FFE" d="M306.897,308.389h-74.894c-5.303,0-9.603,4.3-9.603,9.602c0,5.304,4.3,9.603,9.603,9.603h74.894
			c5.303,0,9.603-4.299,9.603-9.603C316.5,312.689,312.2,308.389,306.897,308.389z"/>
		<path fill="#304FFE" d="M406.325,123.502c-15.885,0-28.808,12.923-28.808,28.807c0,3.586,0.688,7.006,1.891,10.175l-20.547,17.363
			c-4.269-2.505-9.22-3.967-14.517-3.967c-7.05,0-13.509,2.555-18.521,6.776l-29.503-17.351c0.345-1.778,0.539-3.609,0.539-5.486
			c0-15.884-12.923-28.807-28.808-28.807c-15.884,0-28.807,12.923-28.807,28.807c0,2.042,0.221,4.032,0.626,5.954l-27.154,16.578
			c-4.96-4.039-11.279-6.471-18.159-6.471c-12.558,0-23.236,8.091-27.17,19.324c-24.472,1.634-43.885,22.052-43.885,46.931
			c0,25.943,21.106,47.05,47.049,47.05c5.303,0,9.602-4.299,9.602-9.603c0-5.303-4.3-9.602-9.602-9.602
			c-15.353,0-27.844-12.491-27.844-27.845c0-14.32,10.869-26.139,24.788-27.668c3.502,9.659,12.01,16.91,22.388,18.614
			c11.689,32.664,42.936,56.103,79.569,56.103c36.631,0,67.871-23.439,79.559-56.101c13.668-2.241,24.142-14.102,24.142-28.395
			c0-3.585-0.688-7.005-1.89-10.175l20.547-17.363c4.269,2.505,9.22,3.967,14.518,3.967c15.884,0,28.808-12.923,28.808-28.808
			S422.209,123.502,406.325,123.502z M268.05,150.217c5.295,0,9.603,4.307,9.603,9.602c0,5.295-4.308,9.602-9.603,9.602
			c-5.294,0-9.602-4.308-9.602-9.602C258.447,154.524,262.755,150.217,268.05,150.217z M194.556,195.086
			c5.295,0,9.603,4.308,9.603,9.602c0,5.295-4.308,9.602-9.603,9.602c-5.294,0-9.602-4.308-9.602-9.602
			C184.953,199.393,189.261,195.086,194.556,195.086z M269.45,269.979c-27.214,0-50.557-16.75-60.341-40.472
			c8.513-5.011,14.255-14.246,14.255-24.819c0-2.041-0.221-4.031-0.626-5.954l27.154-16.578c4.96,4.039,11.279,6.471,18.159,6.471
			c7.05,0,13.509-2.554,18.521-6.775l29.503,17.35c-0.345,1.778-0.539,3.609-0.539,5.486c0,10.573,5.742,19.808,14.255,24.819
			C320.007,253.23,296.663,269.979,269.45,269.979z M344.343,214.291c-5.295,0-9.603-4.308-9.603-9.602
			c0-5.295,4.308-9.602,9.603-9.602c5.294,0,9.602,4.308,9.602,9.602C353.946,209.983,349.638,214.291,344.343,214.291z
			 M406.325,161.913c-5.295,0-9.603-4.308-9.603-9.603c0-5.295,4.308-9.602,9.603-9.602s9.602,4.308,9.602,9.602
			C415.927,157.605,411.619,161.913,406.325,161.913z"/>
	</g>
	<path fill="#EDAF28" d="M415.927,152.31c0-5.295-4.308-9.602-9.602-9.602s-9.603,4.308-9.603,9.602
		c0,5.295,4.308,9.603,9.603,9.603S415.927,157.605,415.927,152.31z"/>
</g>
</svg>
