<svg xmlns="http://www.w3.org/2000/svg" width="200" height="200" viewBox="0 0 200 200" role="img" aria-label="Krono"><defs>
<linearGradient id="gTop" gradientUnits="userSpaceOnUse" x1="100" y1="-6" x2="100" y2="100"><stop offset="0%" stop-color="#c2f4ff"/><stop offset="100%" stop-color="#2eb8f2"/></linearGradient>
<linearGradient id="gRight" gradientUnits="userSpaceOnUse" x1="162.35" y1="64" x2="100" y2="172"><stop offset="0%" stop-color="#2eb8f2"/><stop offset="100%" stop-color="#0c5f8e"/></linearGradient>
<linearGradient id="gLeft" gradientUnits="userSpaceOnUse" x1="37.65" y1="64" x2="100" y2="172"><stop offset="0%" stop-color="#1580b0"/><stop offset="100%" stop-color="#073651"/></linearGradient>
<linearGradient id="gWall" gradientUnits="userSpaceOnUse" x1="100" y1="32" x2="100" y2="96"><stop offset="0%" stop-color="#114a66"/><stop offset="100%" stop-color="#07212e"/></linearGradient>
<linearGradient id="gFloor" gradientUnits="userSpaceOnUse" x1="100" y1="46" x2="100" y2="92"><stop offset="0%" stop-color="#0a3145"/><stop offset="100%" stop-color="#051219"/></linearGradient>
<radialGradient id="gLift" gradientUnits="userSpaceOnUse" cx="100" cy="58" r="46"><stop offset="0%" stop-color="#8fe6ff" stop-opacity="0.5"/><stop offset="100%" stop-color="#8fe6ff" stop-opacity="0"/></radialGradient>
</defs><filter id="og" x="-22%" y="-28%" width="144%" height="156%"><feGaussianBlur in="SourceGraphic" stdDeviation="4" result="b"/><feColorMatrix in="b" type="matrix" values="0 0 0 0 0.18  0 0 0 0 0.72  0 0 0 0 0.95  0 0 0 0.4 0" result="cb"/><feMerge><feMergeNode in="cb"/><feMergeNode in="SourceGraphic"/></feMerge></filter><g filter="url(#og)"><ellipse cx="100" cy="54" rx="46" ry="24" fill="url(#gLift)"/><polygon points="162.35,64 162.35,136 100,172 100,100" fill="url(#gRight)"/><polygon points="37.65,64 100,100 100,172 37.65,136" fill="url(#gLeft)"/><polygon points="100,28 162.35,64 100,100 37.65,64" fill="url(#gWall)"/><polygon points="100.0,49.84 134.92,70.0 100.0,90.16 65.08,70.0" fill="url(#gFloor)"/><polyline points="162.35,64 100,100 37.65,64" fill="none" stroke="rgba(190,242,255,0.65)" stroke-width="1.2"/><polyline points="162.35,64 100,28 37.65,64" fill="none" stroke="rgba(120,200,230,0.22)" stroke-width="1"/><ellipse cx="100" cy="66" rx="25" ry="11" fill="#03090e" opacity="0.5"/><polygon points="162.35,37.0 100,73 100,87 162.35,51.0" fill="url(#gRight)"/><polygon points="37.65,37.0 100,73 100,87 37.65,51.0" fill="url(#gLeft)"/><polygon points="100,1 162.35,37.0 100,73 37.65,37.0" fill="url(#gTop)"/><polyline points="162.35,37.0 100,73 37.65,37.0" fill="none" stroke="rgba(255,255,255,0.5)" stroke-width="0.9"/></g></svg>